<?xml version="1.0" encoding="iso-8859-1"?>
<!-- Uploaded to: SVG Repo, www.svgrepo.com, Generator: SVG Repo Mixer Tools -->
<svg fill="#000000" height="800px" width="800px" version="1.1" id="Layer_1" xmlns="http://www.w3.org/2000/svg" xmlns:xlink="http://www.w3.org/1999/xlink" 
	 viewBox="0 0 512 512" xml:space="preserve">
<g>
	<g>
		<polygon points="206.275,65.341 255.993,117.221 305.718,65.341 		"/>
	</g>
</g>
<g>
	<g>
		<path d="M121.758,390.821v37.105c0,10.402,8.433,18.834,18.834,18.834h230.815c10.402,0,18.834-8.433,18.834-18.834v-37.105
			H121.758z"/>
	</g>
</g>
<g>
	<g>
		<path d="M285.621,230.696c-7.517-10.888-16.935-10.166-24.197,0c-8.31,12.763-8.144,33.478,0,45.694
			c7.374,10.571,16.982,10.699,24.197,0C293.75,264.197,293.944,243.481,285.621,230.696z"/>
	</g>
</g>
<g>
	<g>
		<path d="M507.206,207.84L385.448,71.625c-6.883-7.706-14.238-6.283-27.552-6.283l-88.307,92.132
			c-7.414,7.735-19.784,7.733-27.196-0.001l-88.294-92.13c-14.167,0-20.767-1.31-27.55,6.283L4.792,207.84
			c-6.48,7.249-6.376,18.24,0.24,25.367l66.227,71.321c7.108,7.652,19.083,8.06,26.692,0.917l23.807-22.345v70.053h268.483V283.1
			l23.807,22.345c7.614,7.147,19.589,6.729,26.692-0.917l66.227-71.321C513.584,226.08,513.688,215.089,507.206,207.84z
			 M121.758,231.438L85.978,265.02l-41.667-44.871l77.446-86.641V231.438z M216.761,298.618c-3.813,0-6.906-3.093-6.906-6.906
			v-64.479l-6.701,4.156c-3.24,2.007-7.497,1.012-9.509-2.23c-2.009-3.242-1.011-7.499,2.23-9.509l17.246-10.694
			c4.591-2.844,10.545,0.46,10.545,5.87v76.886h0.001C223.667,295.525,220.574,298.618,216.761,298.618z M297.463,284.369
			c-12.624,18.936-34.993,19.145-47.752,0c-11.508-16.736-11.745-44.443,0-61.525c12.556-19.137,35.313-18.954,47.752,0
			C309.076,240.128,308.889,267.364,297.463,284.369z M426.02,265.02l-35.779-33.582v-97.929l77.446,86.641L426.02,265.02z"/>
	</g>
</g>
</svg>