<?xml version="1.0" encoding="iso-8859-1"?>
<!-- Uploaded to: SVG Repo, www.svgrepo.com, Generator: SVG Repo Mixer Tools -->
<!DOCTYPE svg PUBLIC "-//W3C//DTD SVG 1.1//EN" "http://www.w3.org/Graphics/SVG/1.1/DTD/svg11.dtd">
<svg fill="#000000" height="800px" width="800px" version="1.1" id="Capa_1" xmlns="http://www.w3.org/2000/svg" xmlns:xlink="http://www.w3.org/1999/xlink" 
	 viewBox="0 0 512 512" xml:space="preserve">
<g>
	<path d="M462.657,137.343C430.837,105.524,388.698,88,344,88H168c-44.698,0-86.837,17.524-118.657,49.343S0,211.302,0,256
		s17.524,86.837,49.343,118.657S123.302,424,168,424h176c44.698,0,86.837-17.524,118.657-49.343S512,300.698,512,256
		S494.476,169.163,462.657,137.343z M451.343,363.343C422.546,392.141,384.424,408,344,408H168
		c-40.424,0-78.546-15.859-107.343-44.657S16,296.424,16,256s15.859-78.546,44.657-107.343S127.576,104,168,104h176
		c40.424,0,78.546,15.859,107.343,44.657S496,215.576,496,256S480.141,334.546,451.343,363.343z"/>
	<path d="M120,152c-13.234,0-24,10.766-24,24v160c0,13.234,10.766,24,24,24h272c13.234,0,24-10.766,24-24V176
		c0-13.234-10.766-24-24-24H120z M248,295.195c-18.236-3.716-32-19.878-32-39.195s13.764-35.479,32-39.195V295.195z M264,216.805
		c18.236,3.716,32,19.878,32,39.195s-13.764,35.479-32,39.195V216.805z M112,216h32v80h-32V216z M112,336v-24h40
		c4.418,0,8-3.582,8-8v-96c0-4.418-3.582-8-8-8h-40v-24c0-4.411,3.589-8,8-8h128v32.581c-27.101,3.895-48,27.258-48,55.419
		s20.899,51.525,48,55.419V344H120C115.589,344,112,340.411,112,336z M400,296h-32v-80h32V296z M400,176v24h-40
		c-4.418,0-8,3.582-8,8v96c0,4.418,3.582,8,8,8h40v24c0,4.411-3.589,8-8,8H264v-32.581c27.101-3.895,48-27.258,48-55.419
		s-20.899-51.525-48-55.419V168h128C396.411,168,400,171.589,400,176z"/>
	<path d="M419.278,152.536c5.404,3.944,10.542,8.346,15.271,13.083c1.563,1.566,3.612,2.349,5.662,2.349
		c2.045,0,4.09-0.779,5.652-2.338c3.127-3.122,3.131-8.187,0.01-11.314c-5.315-5.324-11.089-10.271-17.164-14.705
		c-3.57-2.604-8.573-1.823-11.178,1.747C414.927,144.927,415.709,149.931,419.278,152.536z"/>
	<path d="M466.142,179.793c-2.344-3.744-7.28-4.88-11.026-2.536c-3.745,2.344-4.88,7.281-2.536,11.026
		C465.285,208.577,472,231.993,472,256c0,70.58-57.42,128-128,128H168c-70.58,0-128-57.42-128-128s57.42-128,128-128h176
		c17.267,0,34.026,3.395,49.812,10.09c0.495,0.21,0.988,0.423,1.48,0.639c4.045,1.774,8.765-0.066,10.54-4.112
		c1.775-4.046-0.066-8.765-4.112-10.54c-0.552-0.242-1.105-0.481-1.661-0.716C382.287,115.822,363.426,112,344,112H168
		c-79.402,0-144,64.598-144,144s64.598,144,144,144h176c79.402,0,144-64.598,144-144C488,228.986,480.441,202.634,466.142,179.793z"
		/>
</g>
</svg>